<svg xmlns="http://www.w3.org/2000/svg" xmlns:xlink="http://www.w3.org/1999/xlink" xmlns:sketch="http://www.bohemiancoding.com/sketch/ns" width="72px" height="45px" viewBox="0 0 72 45" version="1.1"><title>creditcards_amazon-payments</title><desc>Created with Sketch.</desc><defs><linearGradient x1="50%" y1="1.02257311e-06%" x2="50%" y2="100%" id="linearGradient-1"><stop stop-color="#FFFFFF" offset="0%"/><stop stop-color="#EAEBED" offset="100%"/></linearGradient></defs><g id="Page-1" stroke="none" stroke-width="1" fill="none" fill-rule="evenodd" sketch:type="MSPage"><g id="creditcards_amazon-payments" sketch:type="MSLayerGroup"><path d="M72,40.5 C72,42.975 69.975,45 67.5,45 L4.5,45 C2.025,45 0,42.975 0,40.5 L0,4.5 C0,2.025 2.025,0 4.5,0 L67.5,0 C69.975,0 72,2.025 72,4.5 L72,40.5 L72,40.5 Z" id="Shape" fill="url(#linearGradient-1)" sketch:type="MSShapeGroup"/><path d="M67.5,0.15 C69.899,0.15 71.85,2.101 71.85,4.5 L71.85,40.5 C71.85,42.899 69.899,44.85 67.5,44.85 L4.5,44.85 C2.101,44.85 0.15,42.899 0.15,40.5 L0.15,4.5 C0.15,2.101 2.101,0.15 4.5,0.15 L67.5,0.15 L67.5,0.15 Z M67.5,0 L4.5,0 C2.025,0 0,2.025 0,4.5 L0,40.5 C0,42.975 2.025,45 4.5,45 L67.5,45 C69.975,45 72,42.975 72,40.5 L72,4.5 C72,2.025 69.975,0 67.5,0 L67.5,0 L67.5,0 Z" id="Shape" fill="#999999" sketch:type="MSShapeGroup"/><g id="Group" transform="translate(11.000000, 8.000000)" sketch:type="MSShapeGroup"><path d="M31.5283594,12.3598644 C28.5804531,14.5811525 24.3065469,15.7621695 20.6260469,15.7621695 C15.4681406,15.7621695 10.8234219,13.8155932 7.30867188,10.5754576 C7.0326875,10.3210847 7.27865625,9.97342373 7.61042188,10.1705763 C11.40275,12.4235932 16.0923594,13.7800678 20.9357656,13.7800678 C24.2032187,13.7800678 27.795,13.088 31.0999062,11.656678 C31.5982188,11.4408136 32.0160469,11.9921356 31.5283594,12.3598644" id="Fill-1" fill="#F79821"/><path d="M32.7550156,10.9301695 C32.3780937,10.4371525 30.2629219,10.6964068 29.3125156,10.8127458 C29.0245781,10.848 28.9799531,10.5911864 29.2392031,10.4051525 C30.9269844,9.19511864 33.691875,9.54440678 34.0132812,9.94955932 C34.3370781,10.3582373 33.9280156,13.1886102 32.34675,14.5391186 C32.1034375,14.7468475 31.8720781,14.6362034 31.9801875,14.3617627 C32.3358594,13.4543729 33.1324687,11.4231864 32.7550156,10.9301695" id="Fill-2" fill="#F79821"/><path d="M29.3791875,1.85708475 L29.3791875,0.681220339 C29.38025,0.502237288 29.512,0.382915254 29.671375,0.383457627 L34.8332656,0.382915254 C34.9982187,0.382915254 35.1307656,0.505491525 35.1307656,0.67959322 L35.1307656,1.68813559 C35.1291719,1.85735593 34.9897187,2.07783051 34.7421562,2.42820339 L32.068375,6.32569492 C33.06075,6.30183051 34.1107656,6.4539661 35.0125625,6.97138983 C35.2157656,7.088 35.2702187,7.26047458 35.2864219,7.4299661 L35.2864219,8.68474576 C35.2864219,8.85749153 35.1010156,9.05762712 34.9060469,8.95349153 C33.3176094,8.10386441 31.2090781,8.01111864 29.4522344,8.9640678 C29.2726719,9.06142373 29.084875,8.86454237 29.084875,8.69125424 L29.084875,7.49857627 C29.084875,7.30766102 29.0885937,6.98142373 29.2771875,6.69071186 L32.3749063,2.15322034 L29.67775,2.15294915 C29.5125312,2.15294915 29.38025,2.03308475 29.3791875,1.85708475" id="Fill-3" fill="#0A0B09"/><path d="M10.550625,9.20081356 L8.98025,9.20081356 C8.83070313,9.19077966 8.7114375,9.07633898 8.69921875,8.92962712 L8.70054687,0.701288136 C8.70054687,0.536677966 8.83601562,0.405152542 9.003625,0.405152542 L10.4658906,0.404610169 C10.6191563,0.412474576 10.7416094,0.530711864 10.7514375,0.681220339 L10.7514375,1.75538983 L10.7809219,1.75538983 C11.1618281,0.716474576 11.8803437,0.23159322 12.8474844,0.23159322 C13.8295,0.23159322 14.4454844,0.716474576 14.8850938,1.75538983 C15.2665312,0.716474576 16.1311406,0.23159322 17.0547188,0.23159322 C17.7142656,0.23159322 18.4327813,0.508474576 18.8723906,1.1319322 C19.3707031,1.82481356 19.2684375,2.82874576 19.2684375,3.712 L19.2668437,8.90467797 C19.2668437,9.06874576 19.131375,9.20081356 18.9640313,9.20081356 L17.3955156,9.20081356 C17.238,9.19050847 17.1139531,9.06305085 17.1139531,8.90522034 L17.1134219,4.54291525 C17.1134219,4.19715254 17.1426406,3.33098305 17.0693281,3.0020339 C16.9519219,2.44772881 16.6002344,2.29179661 16.1460156,2.29179661 C15.7648438,2.29179661 15.3687969,2.55159322 15.2075625,2.96705085 C15.0465938,3.38305085 15.0609375,4.07511864 15.0609375,4.54291525 L15.0609375,8.90467797 C15.0609375,9.06874576 14.9254688,9.20081356 14.7583906,9.20081356 L13.1896094,9.20081356 C13.0320938,9.19050847 12.9077812,9.06305085 12.9077812,8.90522034 L12.9061875,4.54291525 C12.9061875,3.62522034 13.0528125,2.27498305 11.9387813,2.27498305 C10.809875,2.27498305 10.8539688,3.59050847 10.8539688,4.54291525 L10.8534375,8.90467797 C10.8534375,9.06874576 10.7179688,9.20081356 10.550625,9.20081356" id="Fill-4" fill="#0A0B09"/><path d="M39.58875,1.91132203 C38.4308906,1.91132203 38.3575781,3.52108475 38.3575781,4.52555932 C38.3575781,5.5300339 38.3432344,7.67701695 39.5744062,7.67701695 C40.7912344,7.67701695 40.8496719,5.94549153 40.8496719,4.88949153 C40.8496719,4.19715254 40.8204531,3.36569492 40.6148594,2.70752542 C40.4390156,2.13613559 40.0870625,1.91132203 39.58875,1.91132203 L39.58875,1.91132203 Z M39.5744062,0.23159322 C41.9052656,0.23159322 43.1656563,2.27498305 43.1656563,4.87213559 C43.1656563,7.38250847 41.7735156,9.37410169 39.5744062,9.37410169 C37.2876406,9.37410169 36.0415938,7.33044068 36.0415938,4.78535593 C36.0415938,2.22264407 37.30225,0.23159322 39.5744062,0.23159322 L39.5744062,0.23159322 Z" id="Fill-5" fill="#0A0B09"/><path d="M46.1884688,9.20081356 L44.6236719,9.20081356 C44.4664219,9.19050847 44.3421094,9.06305085 44.3421094,8.90522034 L44.3394531,0.673627119 C44.3527344,0.523118644 44.4828906,0.405152542 44.6412031,0.405152542 L46.097625,0.404610169 C46.2349531,0.41220339 46.3478438,0.507389831 46.3767969,0.635118644 L46.3767969,1.89369492 L46.4062813,1.89369492 C46.8461563,0.768 47.4616094,0.23159322 48.5464219,0.23159322 C49.2497969,0.23159322 49.9390938,0.491118644 50.3787031,1.20135593 C50.7890938,1.85898305 50.7890938,2.96705085 50.7890938,3.76379661 L50.7890938,8.94183051 C50.7718281,9.08745763 50.6432656,9.20081356 50.4881406,9.20081356 L48.9140469,9.20081356 C48.76875,9.19132203 48.6513438,9.0820339 48.6346094,8.94183051 L48.6346094,4.4740339 C48.6346094,3.57369492 48.7371406,2.25735593 47.6523281,2.25735593 C47.2711563,2.25735593 46.9194688,2.51715254 46.743625,2.91525424 C46.5234219,3.41776271 46.4939375,3.91945763 46.4939375,4.4740339 L46.4939375,8.90467797 C46.4912813,9.06874576 46.3558125,9.20081356 46.1884688,9.20081356" id="Fill-6" fill="#0A0B09"/><path d="M26.8475156,9.18020339 C26.7439219,9.27538983 26.5938437,9.28189831 26.4767031,9.21735593 C25.9552812,8.77477966 25.8617813,8.57057627 25.5765,8.14915254 C24.7145469,9.04542373 24.1041406,9.31471186 22.9874531,9.31471186 C21.6654375,9.31471186 20.6369375,8.48135593 20.6369375,6.81572881 C20.6369375,5.51430508 21.3275625,4.62915254 22.3117031,4.19552542 C23.1635625,3.81369492 24.3538281,3.74427119 25.2646563,3.63986441 L25.2646563,3.43159322 C25.2646563,3.04976271 25.2941406,2.59905085 25.0736719,2.26901695 C24.8824219,1.9739661 24.5153281,1.85247458 24.1920625,1.85247458 C23.5930781,1.85247458 23.0607656,2.16569492 22.9298125,2.81518644 C22.9027187,2.95972881 22.7993906,3.10264407 22.6572813,3.11023729 L21.1349844,2.94183051 C21.0064219,2.912 20.8637812,2.80705085 20.9007031,2.60637288 C21.2507969,0.721355932 22.918125,0.152135593 24.4122656,0.152135593 C25.1764687,0.152135593 26.1752188,0.359864407 26.7776562,0.950237288 C27.5418594,1.67891525 27.4680156,2.65084746 27.4680156,3.70983051 L27.4680156,6.20718644 C27.4680156,6.95864407 27.7740156,7.28813559 28.0608906,7.69274576 C28.1612969,7.83891525 28.1836094,8.01220339 28.0555781,8.11877966 C27.7349687,8.39349153 27.1652031,8.89871186 26.8515,9.18372881 L26.8475156,9.18020339 L26.8475156,9.18020339 Z M25.2646563,5.27132203 C25.2646563,5.89613559 25.2792656,6.41627119 24.9706094,6.9719322 C24.7209219,7.42291525 24.3240781,7.70061017 23.8836719,7.70061017 C23.2812344,7.70061017 22.92875,7.232 22.92875,6.53776271 C22.92875,5.17233898 24.1285781,4.92420339 25.2646563,4.92420339 L25.2646563,5.27132203 L25.2646563,5.27132203 Z" id="Fill-7" fill="#0A0B09"/><path d="M6.26157813,9.18020339 C6.15798437,9.27538983 6.00764063,9.28189831 5.89076562,9.21735593 C5.3688125,8.77477966 5.2753125,8.57057627 4.9905625,8.14915254 C4.12834375,9.04542373 3.5179375,9.31471186 2.40151562,9.31471186 C1.07923438,9.31471186 0.051,8.48135593 0.051,6.81572881 C0.051,5.51430508 0.741359375,4.62915254 1.72576563,4.19552542 C2.577625,3.81369492 3.76789063,3.74427119 4.6781875,3.63986441 L4.6781875,3.43159322 C4.6781875,3.04976271 4.7079375,2.59905085 4.48773438,2.26901695 C4.29648438,1.9739661 3.929125,1.85247458 3.606125,1.85247458 C3.00714062,1.85247458 2.47429687,2.16569492 2.343875,2.81518644 C2.31678125,2.95972881 2.21345313,3.10264407 2.07107812,3.11023729 L0.549046875,2.94183051 C0.420484375,2.912 0.277578125,2.80705085 0.314765625,2.60637288 C0.664328125,0.721355932 2.33165625,0.152135593 3.82632813,0.152135593 C4.59026563,0.152135593 5.58928125,0.359864407 6.19171875,0.950237288 C6.95539063,1.67891525 6.88207812,2.65084746 6.88207812,3.70983051 L6.88207812,6.20718644 C6.88207812,6.95864407 7.1878125,7.28813559 7.4746875,7.69274576 C7.57482812,7.83891525 7.59767188,8.01220339 7.46964063,8.11877966 C7.14876563,8.39349153 6.57873437,8.89871186 6.26529688,9.18372881 L6.26157813,9.18020339 L6.26157813,9.18020339 Z M4.6781875,5.27132203 C4.6781875,5.89613559 4.6930625,6.41627119 4.38467188,6.9719322 C4.13498438,7.42291525 3.73814063,7.70061017 3.29746875,7.70061017 C2.69529687,7.70061017 2.34254688,7.232 2.34254688,6.53776271 C2.34254688,5.17233898 3.54264063,4.92420339 4.6781875,4.92420339 L4.6781875,5.27132203 L4.6781875,5.27132203 Z" id="Fill-8" fill="#0A0B09"/></g><g id="Group" transform="translate(7.000000, 25.000000)" fill="#F79821" sketch:type="MSShapeGroup"><path d="M22.4803924,3.45154037 C23.4550132,1.64063576 25.9596281,1.55608673 26.6393236,3.68310936 C26.7864041,3.47161136 27.0326706,2.95486713 27.5410835,2.57059139 C28.8896047,1.55131988 30.6632328,2.20764108 31.0424832,3.84192103 C31.1510102,4.30949135 31.2023865,4.79880524 31.2085857,5.27900355 C31.2289663,6.83952263 31.2241259,8.40045985 31.206123,9.96106256 C31.206123,10.4257895 31.1654466,10.5351764 30.5569136,10.5351764 C29.9623924,10.5351764 29.9319063,10.4064712 29.9319063,10.0208574 C29.922735,8.33464374 29.947022,6.64801198 29.9076193,4.96263465 C29.8981083,4.55544454 29.7589253,4.11354836 29.5549488,3.75645209 C29.1492035,3.04593922 28.4072621,2.957376 27.7800469,3.49594743 C27.2122753,3.9835051 26.9080937,4.61523935 26.9007906,5.35594232 C26.8853353,6.91654503 26.8955256,8.47739862 26.8933177,10.0381686 C26.8927233,10.505488 26.9052914,10.5905388 26.2727262,10.5905388 C25.5607613,10.5905388 25.6083163,10.5037318 25.6063631,10.0288021 C25.59906,8.27300909 25.5981259,6.51713243 25.5951537,4.7613394 C25.5943045,4.24593323 25.3778448,3.80637866 25.011672,3.47060781 C24.4247936,2.93253815 23.5433294,3.16218367 23.0637892,3.9202815 C22.7097599,4.48001109 22.5743982,5.09326331 22.5693031,5.73536757 C22.5576691,7.19845874 22.55147,8.66196806 22.5742284,10.1248083 C22.580937,10.5598469 22.4894788,10.5905388 22.0190249,10.5905388 C21.4279854,10.5905388 21.3437452,10.6270847 21.3449341,10.1298261 C21.3507086,7.64930324 21.351388,5.16878039 21.3440849,2.68834117 C21.3440849,2.31376642 21.4279854,2.29428083 21.9256135,2.29428083 C22.3762811,2.29428083 22.4834495,2.29135382 22.4834495,2.70975022 C22.4834495,2.95653971 22.4803924,3.20424911 22.4803924,3.45154037" id="Fill-1"/><path d="M1.16467057,3.36247538 C1.72683748,2.54107032 2.4490776,2.1025193 3.46182723,2.11765617 C4.324694,2.13053505 4.9169224,2.57502374 5.39552855,3.20675799 C5.94801464,3.93592014 6.19062958,4.79311846 6.24608199,5.68117591 C6.31444217,6.77445918 6.28616398,7.86623713 5.8296369,8.90549601 C5.15104539,10.4503764 3.78723865,11.0849541 2.35303367,10.5053208 C1.9528082,10.3435821 1.63733236,9.97812289 1.25086384,9.6813232 C1.25086384,10.6744188 1.24466471,11.8365288 1.24466471,12.831297 C1.24466471,13.1893132 1.18887262,13.1893132 0.639103953,13.1893132 C0.141560761,13.1893132 0.037534407,13.1893132 0.037534407,12.8144876 C0.037534407,9.40158385 0.0293821376,6.15602196 0.0293821376,2.74311823 C0.0293821376,2.42524401 -0.0566412884,2.28650333 0.403282577,2.28650333 C1.24339092,2.28650333 1.16458565,2.17410581 1.16458565,2.98798425 C1.16458565,3.1128425 1.16467057,3.23761713 1.16467057,3.36247538 L1.16467057,3.36247538 L1.16467057,3.36247538 Z M1.59937335,8.50909406 C1.95654466,9.51306145 3.05854466,9.94191149 3.84591801,9.38351996 C4.18406735,9.14375532 4.42201171,8.72067569 4.61359004,8.33656721 C5.00693704,7.54777751 4.9243104,6.67987467 4.85696925,5.84433629 C4.81145242,5.28009073 4.68118594,4.69058917 4.44111859,4.17969898 C3.84464422,2.91087822 2.65245974,3.00855701 1.83791215,4.0085102 C1.54646852,4.36635914 1.24339092,4.93411713 1.24339092,6.28297094 C1.24339092,7.652063 1.48354319,8.18360958 1.59937335,8.50909406 L1.59937335,8.50909406 L1.59937335,8.50909406 Z" id="Fill-2"/><path d="M12.2619473,9.52159161 C11.6488287,10.4068893 10.7938594,10.8311398 9.7801757,10.8176755 C8.03482577,10.7945102 6.93443924,9.69420209 7.23208199,7.90537555 C7.47316837,6.45666859 8.24729429,5.82476708 9.76157833,5.63952862 C10.4569839,5.55456145 11.3867672,5.52136069 12.087183,5.48648736 C12.087183,5.48648736 12.1070542,4.28749689 11.9350922,3.89945785 C11.5932064,3.12823026 10.2814553,2.98831877 9.43098682,3.39659605 C9.03008199,3.58902662 8.82848316,3.82101375 8.6812328,4.20403505 C8.50230747,4.66926375 8.71316252,4.54315106 7.60657687,4.47934206 C7.27479649,4.46019099 7.43537921,4.09322649 7.50255051,3.87411823 C7.83127379,2.8004878 8.80139385,2.34496007 9.89371303,2.21960004 C10.4234407,2.15871806 10.9761816,2.15528926 11.5025124,2.23197715 C12.4925886,2.37623736 13.1367877,3.05865084 13.3007672,4.05233185 C13.359022,4.40558119 13.3867906,4.7671098 13.3902723,5.12520963 C13.4012269,6.2673323 13.3844978,7.40978949 13.3985095,8.55191216 C13.405388,9.11916837 13.4176164,9.69152595 13.5027057,10.2505029 C13.5462694,10.5363472 13.4221171,10.6280047 13.2263777,10.6478248 C12.4885124,10.6478248 12.2708638,10.7037726 12.2530307,10.2879687 L12.2619473,9.52159161 L12.2619473,9.52159161 Z M12.1446735,6.40155701 C11.2518302,6.43684849 10.3257833,6.52215018 9.63836018,6.73214286 C8.64921816,7.03429481 8.26274963,8.10717258 8.63079063,8.96211291 C9.03042167,9.89039596 10.3713851,10.0943673 11.1845739,9.33877839 C12.1446735,8.44653949 12.1446735,7.62421451 12.1446735,6.40155701 L12.1446735,6.40155701 L12.1446735,6.40155701 Z" id="Fill-3"/><path d="M33.6940937,6.49287999 C33.6747321,7.46239219 33.7424129,8.34225399 34.4435081,9.0316087 C35.3603836,9.93321406 36.6970161,9.73844188 37.3295813,8.6097835 C37.681063,7.98264885 37.5718565,7.85486358 38.3723075,8.19448137 C38.7445095,8.35245674 38.7515578,8.43608585 38.6437101,8.69918301 C38.1320703,9.94759827 37.1017423,10.6241577 35.9070102,10.6959115 C33.7295051,10.8268747 32.6839766,9.29821828 32.398817,7.71695918 C32.1621464,6.4044004 32.2136925,5.09786291 32.8268111,3.86608984 C33.7636428,1.98393323 36.0925593,1.42512356 37.630451,2.76762156 C38.6713939,3.6763354 38.9420322,4.95468988 38.850489,6.29375909 C38.845224,6.37086513 38.7657394,6.49287999 38.4860146,6.49287999 L33.6940937,6.49287999 L33.6940937,6.49287999 Z M33.7632182,5.55288886 C34.985634,5.55288886 36.3377218,5.56861114 37.5061288,5.55339064 C37.5061288,5.55339064 37.5061288,4.86445408 37.2280176,4.13938975 C36.8933499,3.26697094 35.7952562,2.81779902 35.0339531,3.21436823 C34.1942694,3.65183208 33.7632182,4.47415705 33.7632182,5.55288886 L33.7632182,5.55288886 L33.7632182,5.55288886 Z" id="Fill-4"/><path d="M54.9128375,10.6929008 C53.6851567,10.6929008 52.8060703,10.3772846 52.1386032,9.41730612 C51.9826911,9.1930965 51.8757775,8.93150466 51.7772709,8.67551597 C51.7053441,8.40472493 51.7898389,8.33890883 52.1672211,8.21948647 C52.7491742,8.03533518 52.7632709,7.91691637 53.006735,8.40639752 C53.6403192,9.68090506 55.2523455,9.98840927 56.301101,9.15445985 C56.9809663,8.61379769 56.7590717,7.48329947 55.8536603,7.19101575 C55.2458917,6.9949055 54.6102694,6.87397782 53.980082,6.75572626 C52.9923836,6.57023691 52.1260351,5.83354814 52.0237072,4.9478323 C51.9040556,3.91267125 52.0410307,3.09494587 53.0796808,2.4688984 C53.9963865,1.90900155 55.4757687,1.8677724 56.429754,2.37882986 C56.8677687,2.61340949 57.3064627,3.1082429 57.5409253,3.77485049 C57.6660966,4.13077595 57.6226179,4.1536067 57.2240059,4.25195453 C56.6152182,4.40223602 56.5523777,4.42540129 56.4310278,4.1754339 C55.9566676,3.19881322 55.3516164,2.93220364 54.3951684,3.14579237 C53.5869898,3.3263476 53.2850161,3.6915559 53.3086237,4.38275044 C53.3282401,4.95477351 53.7563192,5.31973092 54.4837394,5.47553194 C55.2585447,5.64153571 56.0516076,5.78788665 56.7815754,6.07766149 C57.5731098,6.3917724 57.9169488,7.09751841 57.9786852,7.92795541 C57.9786852,9.46054237 57.0977306,10.6929008 54.9128375,10.6929008" id="Fill-5"/><path d="M41.2478507,3.37811402 C41.5289341,3.05748004 41.7374114,2.73559161 42.0233353,2.50820408 C42.8404305,1.85840594 44.063101,1.86216925 44.8929341,2.48804947 C45.3363836,2.82248225 45.9050893,3.58559783 45.9050893,5.03898802 L45.9157892,9.97134894 C45.9151947,10.4687748 45.8989751,10.5212939 45.2510395,10.5212939 C44.724284,10.5212939 44.6824187,10.4182629 44.6899766,9.9838933 C44.7156223,8.5213039 44.7090835,7.05787822 44.6933734,5.59503793 C44.6892972,5.21184938 44.6819092,4.76635714 44.6205974,4.38601198 C44.5147877,3.7303598 44.1173646,3.27223957 43.4223836,3.17765506 C42.7606061,3.08750288 42.2972006,3.50405945 41.9161669,3.99964552 C41.4701698,4.57969698 41.3530659,5.2616087 41.340243,5.95405768 C41.314937,7.31913554 41.342366,8.68504969 41.342366,10.0502948 C41.342366,10.4885113 41.2354524,10.5155235 40.7512416,10.5155235 C40.173959,10.5155235 40.105429,10.5303259 40.105429,10.0650135 C40.1253851,7.59895852 40.1264041,5.13248536 40.1037306,2.66634672 C40.0992299,2.1849776 40.0992299,2.20128527 40.7612621,2.20128527 C41.2850454,2.20128527 41.2478507,2.31376642 41.2478507,2.70406344 L41.2478507,3.37811402" id="Fill-6"/><path d="M17.4341376,8.21806477 C17.8610278,6.88392968 19.2389312,2.55093855 19.2389312,2.55093855 C19.3176515,2.31025399 19.3176515,2.30406544 20.1761874,2.30406544 C20.4797745,2.30406544 20.3573206,2.51999579 20.2151654,2.95194011 L17.4691245,11.6533811 C17.4691245,11.6533811 17.2598829,12.2934783 16.911713,12.7585397 C16.4033001,13.4376917 15.7419473,13.4956466 14.8316105,13.426569 C14.3557218,13.3905248 14.3557218,13.3179348 14.3780556,12.8161602 C14.4003045,12.3148873 14.4256955,12.3666537 14.9732562,12.4318844 C15.2533206,12.4651688 15.9011713,12.6593556 16.3187204,11.7777376 C16.5028258,11.3890295 16.8140556,10.2445652 16.8140556,10.2445652 L14.4542284,2.84748736 C14.3076574,2.3720559 14.2381933,2.29135382 14.8877423,2.29135382 C15.724284,2.29135382 15.6145681,2.34161491 15.7879736,2.93028017 L17.4341376,8.21806477" id="Fill-7"/><path d="M49.3151157,2.20479769 L50.5349839,2.20479769 C50.9162723,2.20479769 50.9274817,2.26492702 50.9274817,2.66107808 C50.9274817,3.17096473 50.9162723,3.23569366 50.5527321,3.23569366 L49.3151157,3.23569366 C49.3060293,3.40378815 49.3114641,8.35764175 49.3114641,8.35764175 C49.3044158,9.18924956 49.6130132,9.71310226 50.6685622,9.5752815 C51.3072416,9.49190328 51.3423133,9.40827418 51.3429927,9.90937977 C51.343757,10.5303259 51.3815461,10.5163598 50.917631,10.5978982 C50.5185095,10.6679794 50.0987526,10.7072014 49.7045564,10.6529261 C48.5530483,10.4941145 48.1318477,9.65422737 48.1082401,8.69332897 C48.1082401,8.69332897 48.0965212,3.45296207 48.0965212,3.23569366 L47.2002811,3.23569366 C46.7481698,3.23569366 46.8220498,3.08733563 46.8220498,2.70673957 C46.8220498,2.23707853 46.7835813,2.21466593 47.1872035,2.20479769 L48.0965212,2.20479769 L48.0965212,0.628556344 C48.0965212,0.22956189 48.0917657,0.190590728 48.8266589,0.05879126 C49.3099356,-0.0278484916 49.3188521,0.119756877 49.3188521,0.542752884 L49.3151157,2.20479769" id="Fill-8"/></g></g></g></svg>