<?xml version="1.0" encoding="utf-8"?>
<!-- Generator: Adobe Illustrator 16.0.0, SVG Export Plug-In . SVG Version: 6.00 Build 0)  -->
<!DOCTYPE svg PUBLIC "-//W3C//DTD SVG 1.1//EN" "http://www.w3.org/Graphics/SVG/1.1/DTD/svg11.dtd">
<svg version="1.1" id="Layer_1" xmlns="http://www.w3.org/2000/svg" xmlns:xlink="http://www.w3.org/1999/xlink" x="0px" y="0px"
     width="320px" height="200px" viewBox="240 0 320 200" enable-background="new 240 0 320 200" xml:space="preserve">
  <g>

    <linearGradient id="SVGID_1_" gradientUnits="userSpaceOnUse" x1="34.4624" y1="61.7886" x2="34.4624" y2="16.7881" gradientTransform="matrix(4.4444 0 0 -4.4444 246.8325 274.6139)">
      <stop  offset="0" style="stop-color:#FFFFFF"/>
      <stop  offset="1" style="stop-color:#BBBBBB"/>
    </linearGradient>
    <path fill="url(#SVGID_1_)" d="M560,180c0,11-9,20-20,20H260c-11,0-20-9-20-20V20c0-11,9-20,20-20h280c11,0,20,9,20,20V180z"/>
    <path fill="#999999" d="M540,0.667c10.662,0,19.333,8.671,19.333,19.333v160c0,10.662-8.671,19.334-19.333,19.334H260
                            c-10.662,0-19.333-8.672-19.333-19.334V20c0-10.662,8.671-19.333,19.333-19.333H540 M540,0H260c-11,0-20,9-20,20v160
                            c0,11,9,20,20,20h280c11,0,20-9,20-20V20C560,9,551,0,540,0L540,0z"/>
    <path d="M346.826,72.71c-16.448,10.633-14.367,31.603,2.334,39.2c-0.815,1.999-1.541,4.062-2.479,6.023
             c-2.776,5.805-6.348,11.088-10.852,15.69c-4.539,4.642-9.849,5.472-15.896,3.229c-3.132-1.16-6.401-2.127-9.692-2.641
             c-3.326-0.518-6.546,0.616-9.65,1.896c-8.804,3.627-13.305,2.58-19.479-4.711c-10.013-11.826-15.655-25.358-15.046-41.026
             c0.36-9.274,3.805-17.275,11.792-22.65c6.609-4.445,13.749-5.607,21.387-2.783c10.134,3.746,7.906,3.617,17.696,0.027
             c7.991-2.931,15.72-2.507,22.989,1.958C342.388,68.433,344.41,70.651,346.826,72.71z M380.554,98.579c0,12.801,0,25.384,0,38.114
             c-2.209,0-4.257,0-6.391,0c0-29.555,0-59.052,0-88.826c2.611-0.359,5.252-0.806,7.912-1.074c7.972-0.806,15.949-1.242,23.812,0.851
             c12.815,3.411,19.605,13.672,18.278,26.865c-1.193,11.88-9.327,21.685-24.244,24.117c-5.869,0.957-11.745,0.949-17.624,0.081
             C381.818,98.635,381.33,98.633,380.554,98.579z M380.541,72.725c0,6.15,0.031,12.301-0.026,18.451
             c-0.012,1.232,0.415,1.729,1.604,1.936c5.559,0.969,11.141,1.143,16.701,0.249c11.223-1.804,17.286-7.884,18.638-18.469
             c1.413-11.053-3.942-19.143-14.69-22.069c-6.781-1.846-13.633-1.343-20.499-0.497c-1.458,0.181-1.767,0.8-1.754,2.132
             C380.573,60.546,380.541,66.636,380.541,72.725z M468.695,97.227c0.092-5.128-0.138-9.962-2.906-14.225
             c-3.596-5.53-9.114-6.649-15.184-6.269c-5.058,0.317-9.708,1.936-14.165,4.714c-0.72-1.604-1.385-3.09-2.096-4.677
             c3.62-2.574,7.495-4.34,11.735-4.818c3.936-0.443,8.004-0.757,11.905-0.262c8.934,1.133,14.9,7.137,16.418,16.001
             c0.515,3.013,0.772,6.1,0.818,9.158c0.183,11.493,0.201,22.988,0.341,34.482c0.021,1.758,0.348,3.513,0.545,5.394
             c-2.025,0-3.959,0-5.966,0c-0.327-2.938-0.646-5.779-1.007-8.992c-0.602,0.726-0.967,1.18-1.345,1.617
             c-6.702,7.791-15.233,10.416-25.06,8.158c-10.17-2.338-15.396-12.382-12.354-22.939c2.03-7.034,7.094-11.146,13.589-13.776
             c6.598-2.675,13.564-3.3,20.585-3.558C465.839,97.186,467.124,97.227,468.695,97.227z M468.503,102.529
             c-7.479-0.023-14.843,0.132-21.776,3.098c-5.346,2.289-9.327,5.782-10.135,12.032c-0.938,7.297,2.41,12.967,9.211,14.64
             c2.199,0.542,4.629,0.469,6.916,0.26c7.619-0.695,14.755-6.832,15.662-14.176C469.014,113.259,468.503,107.995,468.503,102.529z
             M482.519,160.873c4.614-2.123,8.821-4.6,12.233-8.27c4.098-4.408,7.453-9.274,9.733-14.873c0.755-1.854,0.902-3.547,0.128-5.484
             c-7.615-18.965-15.16-37.959-22.725-56.947c-0.291-0.731-0.554-1.474-0.948-2.538c2.259,0,4.31-0.083,6.344,0.068
             c0.419,0.03,0.913,0.873,1.14,1.434c4.455,11.045,8.95,22.077,13.279,33.172c2.541,6.512,4.809,13.131,7.202,19.7
             c0.103,0.279,0.25,0.544,0.419,0.9c1.93-5.349,3.77-10.611,5.724-15.835c4.729-12.646,9.53-25.269,14.243-37.923
             c0.436-1.167,0.95-1.659,2.227-1.564c1.646,0.122,3.309,0.03,5.107,0.03c-0.096,0.471-0.114,0.823-0.238,1.131
             c-8.44,20.887-16.813,41.801-25.386,62.635c-2.997,7.283-6.687,14.26-12.078,20.133c-3.878,4.225-8.492,7.435-14.193,9.447
             C484.014,164.4,483.287,162.688,482.519,160.873z M307.39,61.952c-1.262-10.035,8.02-21.872,20.271-22.59
             C329.774,49.357,319.151,63.3,307.39,61.952z"/>
  </g>
</svg>
