<?xml version="1.0" encoding="utf-8"?>
<!-- Generator: Adobe Illustrator 16.0.0, SVG Export Plug-In . SVG Version: 6.00 Build 0)  -->
<!DOCTYPE svg PUBLIC "-//W3C//DTD SVG 1.1//EN" "http://www.w3.org/Graphics/SVG/1.1/DTD/svg11.dtd">
<svg version="1.1" id="Layer_1" xmlns="http://www.w3.org/2000/svg" xmlns:xlink="http://www.w3.org/1999/xlink" x="0px" y="0px"
	 width="115.75px" height="50px" viewBox="0 0 115.75 50" enable-background="new 0 0 115.75 50" xml:space="preserve">
<g>
	<g>
		<polygon fill="#EC008C" points="17.73,42.657 6.566,42.657 14.712,30.353 8.046,30.353 8.046,28.998 17.393,28.998 9.138,41.286 
			17.73,41.286 		"/>
		<polygon fill="#9E005D" points="18.023,28.998 18.517,28.998 10.908,40.346 17.73,40.346 17.73,40.762 10.108,40.762 		"/>
		<path fill="none" d="M30.127,30.86c-0.874-0.513-1.828-0.77-2.865-0.77c-1.036,0-1.991,0.257-2.862,0.77
			c-0.854,0.503-1.535,1.197-2.05,2.08c-0.513,0.882-0.769,1.841-0.769,2.879c0,1.027,0.256,1.981,0.769,2.864
			c0.525,0.903,1.211,1.602,2.063,2.094c0.872,0.515,1.821,0.771,2.849,0.771c1.028,0,1.977-0.256,2.849-0.771
			c0.864-0.503,1.55-1.202,2.063-2.094c0.502-0.873,0.756-1.828,0.756-2.864c0-1.047-0.254-2.006-0.756-2.879
			C31.671,32.067,30.989,31.375,30.127,30.86z"/>
		<rect x="34.931" y="28.998" fill="#9E005D" width="0.416" height="13.659"/>
		<path fill="#EC008C" d="M32.93,31.477c-0.742-0.924-1.587-1.622-2.541-2.095c-0.956-0.473-2.003-0.708-3.143-0.708
			c-1.283,0-2.474,0.318-3.571,0.955c-1.088,0.625-1.949,1.493-2.587,2.603c-0.646,1.088-0.971,2.284-0.971,3.587
			c0,1.294,0.324,2.49,0.971,3.589c0.638,1.107,1.499,1.976,2.587,2.601c1.098,0.637,2.288,0.955,3.571,0.955
			c2.311,0,4.204-0.935,5.684-2.803v2.496h1.477V28.998H32.93V31.477z M32.174,38.683c-0.514,0.893-1.199,1.591-2.063,2.094
			c-0.872,0.515-1.82,0.771-2.849,0.771c-1.027,0-1.977-0.256-2.849-0.771c-0.853-0.493-1.538-1.191-2.063-2.094
			c-0.513-0.883-0.769-1.837-0.769-2.864c0-1.038,0.256-1.997,0.769-2.879c0.515-0.883,1.195-1.577,2.05-2.08
			c0.871-0.513,1.826-0.77,2.862-0.77c1.037,0,1.991,0.257,2.865,0.77c0.862,0.514,1.544,1.207,2.047,2.08
			c0.502,0.873,0.756,1.832,0.756,2.879C32.93,36.855,32.676,37.811,32.174,38.683z"/>
		<polygon fill="#EC008C" points="39.504,24.578 40.966,24.578 40.966,28.998 44.108,28.998 44.108,30.353 40.966,30.353 
			40.966,42.657 39.504,42.657 39.504,30.353 37.18,30.353 37.18,28.998 39.504,28.998 		"/>
		<rect x="41.505" y="24.578" fill="#9E005D" width="0.417" height="3.896"/>
		<polygon fill="#9E005D" points="44.108,30.891 44.108,31.307 41.922,31.307 41.922,42.657 41.505,42.657 41.505,30.891 		"/>
		<path fill="#9E005D" d="M52.377,31.569l-0.171,0.385L52.1,31.892c-0.883-0.563-1.754-0.847-2.617-0.847
			c-0.473,0-0.851,0.104-1.141,0.308c-0.276,0.216-0.414,0.508-0.414,0.879c0,0.266,0.107,0.486,0.323,0.661
			c0.183,0.154,0.887,0.606,2.108,1.355c1.449,0.853,2.422,1.588,2.925,2.201c0.503,0.607,0.756,1.362,0.756,2.266
			c0,0.594-0.123,1.154-0.369,1.679c-0.257,0.533-0.605,0.99-1.048,1.369c-0.431,0.382-0.939,0.678-1.525,0.894
			c-0.584,0.215-1.21,0.323-1.878,0.323c-0.657,0-1.354-0.104-2.095-0.309c-0.728-0.194-1.345-0.451-1.847-0.77l-0.093-0.062
			l-0.108-0.061l0.188-0.387l0.121,0.094l0.124,0.063c0.514,0.318,1.103,0.559,1.771,0.723c0.698,0.186,1.344,0.277,1.939,0.277
			c0.597,0,1.176-0.103,1.739-0.308c0.545-0.204,1.018-0.481,1.418-0.832c0.4-0.357,0.709-0.764,0.923-1.215
			c0.218-0.463,0.323-0.956,0.323-1.478c0-0.802-0.235-1.484-0.707-2.049c-0.473-0.566-1.396-1.248-2.773-2.049
			c-0.789-0.481-1.39-0.86-1.801-1.138c-0.34-0.217-0.564-0.417-0.677-0.601c-0.104-0.164-0.154-0.38-0.154-0.646
			c0-0.494,0.185-0.883,0.555-1.171c0.349-0.288,0.827-0.431,1.434-0.431c0.891,0,1.743,0.247,2.555,0.738l0.262,0.168
			C52.346,31.549,52.366,31.559,52.377,31.569z"/>
		<path fill="#EC008C" d="M53.162,29.798l-0.57,1.294c-1.066-0.668-2.104-1.001-3.109-1.001c-0.75,0-1.355,0.2-1.817,0.601
			c-0.463,0.401-0.692,0.914-0.692,1.541c0,0.492,0.19,0.928,0.568,1.308c0.185,0.165,0.432,0.339,0.738,0.524
			c0.36,0.236,0.896,0.568,1.604,1c1.262,0.75,2.119,1.371,2.57,1.863c0.432,0.505,0.646,1.099,0.646,1.788
			c0,0.922-0.378,1.703-1.14,2.34c-0.748,0.647-1.667,0.97-2.756,0.97c-1.345,0-2.586-0.368-3.726-1.108l0.6-1.293
			c1.027,0.655,2.068,0.985,3.126,0.985c0.699,0,1.272-0.173,1.724-0.521c0.464-0.36,0.694-0.791,0.694-1.294
			c0-0.401-0.163-0.776-0.492-1.125c-0.349-0.328-1.007-0.77-1.971-1.324c-0.965-0.555-1.716-1.048-2.25-1.479
			c-0.522-0.41-0.881-0.811-1.076-1.201c-0.206-0.39-0.308-0.853-0.308-1.385c0-0.627,0.18-1.227,0.538-1.803
			c0.358-0.563,0.836-1.005,1.432-1.323c0.597-0.319,1.272-0.478,2.034-0.478C50.821,28.674,52.034,29.048,53.162,29.798z"/>
		<path fill="#9E005D" d="M63.065,31.569l-0.17,0.385l-0.108-0.062c-0.884-0.563-1.756-0.847-2.617-0.847
			c-0.474,0-0.854,0.104-1.142,0.308c-0.276,0.216-0.416,0.508-0.416,0.879c0,0.266,0.109,0.486,0.325,0.661
			c0.184,0.154,0.887,0.606,2.109,1.355c1.448,0.853,2.422,1.588,2.925,2.201c0.503,0.607,0.756,1.362,0.756,2.266
			c0,0.594-0.124,1.154-0.369,1.679c-0.259,0.533-0.608,0.99-1.049,1.369c-0.431,0.382-0.939,0.678-1.522,0.894
			c-0.586,0.215-1.212,0.323-1.88,0.323c-0.657,0-1.355-0.104-2.093-0.309c-0.73-0.194-1.347-0.451-1.849-0.77l-0.094-0.062
			l-0.108-0.061l0.187-0.387l0.123,0.094l0.122,0.063c0.514,0.318,1.105,0.559,1.771,0.723c0.697,0.186,1.346,0.277,1.94,0.277
			s1.175-0.103,1.74-0.308c0.543-0.204,1.017-0.481,1.418-0.832c0.398-0.357,0.708-0.764,0.923-1.215
			c0.216-0.463,0.322-0.956,0.322-1.478c0-0.802-0.235-1.484-0.707-2.049c-0.473-0.566-1.396-1.248-2.773-2.049
			c-0.79-0.481-1.389-0.86-1.802-1.138c-0.338-0.217-0.563-0.417-0.677-0.601c-0.103-0.164-0.153-0.38-0.153-0.646
			c0-0.494,0.184-0.883,0.554-1.171c0.35-0.288,0.827-0.431,1.433-0.431c0.894,0,1.744,0.247,2.557,0.738l0.262,0.168
			C63.033,31.549,63.055,31.559,63.065,31.569z"/>
		<path fill="#EC008C" d="M63.85,29.798l-0.569,1.294c-1.069-0.668-2.106-1.001-3.11-1.001c-0.75,0-1.357,0.2-1.818,0.601
			c-0.46,0.401-0.692,0.914-0.692,1.541c0,0.492,0.188,0.928,0.569,1.308c0.185,0.165,0.432,0.339,0.739,0.524
			c0.358,0.236,0.894,0.568,1.601,1c1.264,0.75,2.121,1.371,2.572,1.863c0.432,0.505,0.647,1.099,0.647,1.788
			c0,0.922-0.38,1.703-1.139,2.34c-0.751,0.647-1.67,0.97-2.759,0.97c-1.344,0-2.586-0.368-3.725-1.108l0.6-1.293
			c1.027,0.655,2.068,0.985,3.125,0.985c0.7,0,1.273-0.173,1.727-0.521c0.462-0.36,0.692-0.791,0.692-1.294
			c0-0.401-0.163-0.776-0.493-1.125c-0.349-0.328-1.006-0.77-1.971-1.324c-0.966-0.555-1.715-1.048-2.247-1.479
			c-0.524-0.41-0.885-0.811-1.079-1.201c-0.204-0.39-0.309-0.853-0.309-1.385c0-0.627,0.181-1.227,0.54-1.803
			c0.359-0.563,0.836-1.005,1.432-1.323c0.595-0.319,1.272-0.478,2.033-0.478C61.509,28.674,62.72,29.048,63.85,29.798z"/>
		<path fill="#9E005D" d="M83.529,39.594c-0.962,0.702-2.028,1.015-3.199,0.942c-1.188-0.059-2.179-0.496-2.972-1.303l-0.374,0.273
			c0.615,0.581,1.32,0.99,2.114,1.223c0.806,0.25,1.613,0.306,2.421,0.161c0.815-0.138,1.563-0.455,2.243-0.951
			c1.359-0.991,2.055-2.434,2.087-4.325l-0.408,0.014C85.409,37.365,84.773,38.687,83.529,39.594z"/>
		<path fill="#EC008C" d="M84.084,40.353c-0.847,0.618-1.749,0.983-2.708,1.098c-0.952,0.122-1.894,0.009-2.822-0.343
			c-0.895-0.338-1.679-0.898-2.349-1.68l10.362-7.558c-0.483-0.664-0.981-1.208-1.496-1.634c-0.514-0.425-1.096-0.763-1.748-1.013
			c-1.148-0.458-2.346-0.62-3.595-0.485c-1.243,0.159-2.352,0.591-3.32,1.299c-1.055,0.769-1.836,1.733-2.35,2.894
			c-0.521,1.168-0.713,2.376-0.579,3.625c0.135,1.263,0.583,2.418,1.344,3.463c0.756,1.035,1.719,1.808,2.888,2.314
			c0.594,0.254,1.19,0.428,1.792,0.524c0.604,0.093,1.226,0.11,1.868,0.047c1.268-0.125,2.42-0.565,3.457-1.32
			c0.929-0.678,1.668-1.58,2.22-2.706c0.549-1.11,0.788-2.22,0.718-3.327l-1.383,0.038C86.357,37.665,85.593,39.253,84.084,40.353z
			 M74.92,35.734c0.008-0.895,0.218-1.742,0.631-2.536c0.409-0.796,0.981-1.46,1.71-1.992c0.721-0.526,1.515-0.857,2.382-0.994
			c0.875-0.143,1.735-0.084,2.584,0.174c0.84,0.262,1.591,0.701,2.252,1.311l-8.995,6.559C75.096,37.499,74.908,36.658,74.92,35.734
			z"/>
		<g>
			<g>
				<path fill="#EC008C" d="M69.505,28.051c-0.582,0-3.999-0.093-5.457-2.262c-0.895-1.331-0.851-3.148,0.126-5.401l0.013-0.028
					c0.09-0.151,2.119-3.693,2.379-4.093l0.169-0.262l1.517,1.21l-0.351,0.44l-1.026-0.818c-0.537,0.907-2.065,3.573-2.189,3.788
					c-0.89,2.059-0.948,3.691-0.17,4.85c1.396,2.07,5.02,2.016,5.059,2.012l0.012,0.563C69.575,28.051,69.547,28.051,69.505,28.051z
					"/>
			</g>
			<g>
				<path fill="#EC008C" d="M69.64,28.051c-0.042,0-0.069,0-0.081,0l0.012-0.563c0.033,0.002,3.67,0.056,5.059-2.014
					c0.776-1.158,0.722-2.79-0.17-4.848c-0.123-0.215-1.654-2.881-2.189-3.788l-1.026,0.818l-0.351-0.44l1.517-1.21l0.17,0.262
					c0.26,0.399,2.291,3.941,2.378,4.093l0.013,0.028c0.979,2.253,1.021,4.07,0.125,5.401C73.638,27.957,70.222,28.051,69.64,28.051
					z"/>
			</g>
			<g>
				<path fill="#EC008C" d="M69.589,28.074l-0.109-0.041c-0.104-0.039-2.557-0.987-3.281-3.606
					c-0.677-2.443,0.389-5.447,3.161-8.934l0.211-0.27l0.224,0.263c0.165,0.196,4.076,4.88,3.209,8.82
					c-0.358,1.616-1.471,2.867-3.307,3.718L69.589,28.074z M69.58,16.121c-2.491,3.218-3.444,5.96-2.839,8.155
					c0.568,2.053,2.375,2.98,2.829,3.184c1.603-0.77,2.571-1.872,2.882-3.274C73.149,21.03,70.389,17.168,69.58,16.121z"/>
			</g>
		</g>
		<rect x="68.463" y="28.714" fill="#EC008C" width="1.958" height="14.225"/>
		<rect x="70.722" y="28.714" fill="#9E005D" width="0.341" height="14.225"/>
		<g>
			<g>
				<g>
					<path fill="#010101" d="M9.65,24.114c0,0-2.438,4.418-1.675,4.308c0.765-0.11,2.445-1.159,3.844-3.182
						c1.398-2.022,1.573-2.978,1.149-3.2c0,0-0.711-0.341-1.081,0.569c0,0-1.192-0.082-1.201,0.97
						C10.687,23.58,9.838,23.444,9.65,24.114z"/>
					<path fill="#9E005D" d="M8.292,28.242c0,0,1.503-0.739,2.774-2.342c1.27-1.604,1.721-2.729,1.809-3.161
						c0.085-0.431-0.452-0.661-0.762-0.044c-0.307,0.616-0.666,2.132-1.64,3.328c-0.974,1.196-2.291,1.862-2.291,1.862L8.292,28.242
						z"/>
					<path fill="#9E005D" d="M11.794,22.903c0,0-0.795-0.173-0.925,0.703c-0.119,0.792-0.457,2.318-2.034,3.735
						C8.835,27.342,10.991,26.157,11.794,22.903z"/>
					<path fill="#9E005D" d="M10.662,23.808c0,0-0.204,2.251-2.284,3.633l1.443-3.415C9.821,24.026,10.121,23.709,10.662,23.808z"/>
				</g>
				<g>
					<path fill="#010101" d="M4.68,24.408c-0.054,0.653,0.294,1.014,1.7,2.416c1.41,1.403,1.492,1.728,1.492,1.728
						s2.105-2.486,2.125-5.663c0.019-3.179-1.051-4.767-1.808-4.882c-0.669-0.102-1.255,0.56-1.027,1.438
						c0,0-0.783,0.176-1.012,0.975c-0.23,0.798-0.056,1.016-0.056,1.016s-0.679,0.357-0.907,0.884
						c-0.313,0.717-0.055,1.262-0.055,1.262S4.747,23.605,4.68,24.408z"/>
					<path fill="#010101" d="M4.809,24.541c-0.049,0.649,0.24,1.033,1.649,2.433c1.41,1.402,1.526,1.711,1.526,1.711
						s1.965-2.533,1.971-5.695c0.009-3.163-1.062-4.62-1.63-4.731c-0.661-0.13-1.224,0.444-0.992,1.319c0,0-0.778,0.171-1.005,0.964
						c-0.228,0.793-0.052,1.011-0.052,1.011s-0.675,0.353-0.902,0.876c-0.308,0.713-0.048,1.256-0.048,1.256
						S4.874,23.743,4.809,24.541z"/>
					<path fill="#010101" d="M4.888,29.16c0.639-0.187,1.595-0.403,2.158-0.008c0.327,0.23,0.067-0.029,0.465-0.244
						c0.401-0.214,0.565-0.267,0.565-0.267s-0.122-1.009-1.786-2.298c0,0-1.211-0.929-2.141-0.385
						c-0.929,0.541-0.514,1.272-0.514,1.272s-0.446,0.604-0.073,1.055c0.293,0.353,0.657,0.317,0.657,0.317
						S4.062,29.401,4.888,29.16z"/>
					<path fill-rule="evenodd" clip-rule="evenodd" fill="#EC008C" d="M8.172,28.295c0,0,1.479-2.268,1.545-5.046
						c0,0-0.624,0.427-0.854,1.479c-0.23,1.053-0.631,2.448-0.707,2.777C8.058,27.934,7.894,28.592,8.172,28.295z"/>
					<path fill-rule="evenodd" clip-rule="evenodd" fill="#EC008C" d="M7.466,28.409c0,0,0.067,0.183,0.246,0.083
						c0.182-0.098,0.828-2.999,0.999-3.628c0.17-0.628-0.196-1.183-0.542-1.171c-0.344,0.013-0.585,0.339-0.621,0.591
						c-0.039,0.253,0.116,1.104,0.022,2.263C7.479,27.705,7.398,28.221,7.466,28.409z"/>
					<path fill-rule="evenodd" clip-rule="evenodd" fill="#EC008C" d="M7.394,24.284c0,0,0.097,1.247,0.072,2.208
						c-0.025,0.961-0.122,1.183-0.122,1.652c0,0.468-0.087,0.689-0.247,0.418c-0.16-0.271-0.118-1.564-0.309-2.405
						c-0.185-0.813-1.086-2.469-0.48-2.884C6.898,22.867,7.344,23.458,7.394,24.284z"/>
					<path fill-rule="evenodd" clip-rule="evenodd" fill="#EC008C" d="M6.701,26.33c0,0-0.073-0.412-0.64-1.75
						c-0.171-0.402-0.458-0.9-0.802-0.802c-0.346,0.099-0.604,0.593-0.271,1.245c0.332,0.654,0.739,0.912,1.049,1.43
						c0.307,0.517,0.631,1.629,0.688,1.887c0.056,0.245,0.197,0.492,0.309,0.48c0.185-0.021-0.111-0.136-0.16-0.715
						C6.826,27.526,6.887,27.502,6.701,26.33z"/>
					<path fill-rule="evenodd" clip-rule="evenodd" fill="#EC008C" d="M5.296,23.57c0,0,0.506,0.098,0.69,0.591
						c0,0-0.085-0.925-0.714-1.356C5.272,22.805,5.112,23.052,5.296,23.57z"/>
					<path fill-rule="evenodd" clip-rule="evenodd" fill="#EC008C" d="M5.986,23.52c0,0,0.051-0.29,0.321-0.419
						c0,0-0.16-0.591-0.704-0.985c0,0-0.215,0.141-0.269,0.53C5.335,22.646,5.79,22.879,5.986,23.52z"/>
					<path fill-rule="evenodd" clip-rule="evenodd" fill="#EC008C" d="M6.479,23.052c0,0,0.309-0.11,0.531,0.073
						c0,0-0.124-1.009-0.753-1.491c0,0-0.235,0.062-0.53,0.345C5.728,21.979,6.294,22.459,6.479,23.052z"/>
					<path fill-rule="evenodd" clip-rule="evenodd" fill="#EC008C" d="M6.528,20.154c0,0,0.888,0.679,1.196,1.862
						c0.309,1.183,0.614,1.047,0.666,0.863c0.05-0.185-0.122-1.54-0.555-2.33c-0.431-0.789-0.604-0.913-0.604-0.913
						S6.715,19.797,6.528,20.154z"/>
					<path fill-rule="evenodd" clip-rule="evenodd" fill="#EC008C" d="M6.431,20.315c0,0-0.283,0.456-0.123,1.134
						c0,0,0.765,0.567,0.887,1.837c0,0,0.211,0.197,0.31,0.665c0,0,0.332-0.567,0.85-0.332l-0.062-0.47c0,0-0.271,0.013-0.42-0.333
						c-0.147-0.345-0.432-1.38-0.678-1.726C6.947,20.746,6.555,20.376,6.431,20.315z"/>
					<path fill-rule="evenodd" clip-rule="evenodd" fill="#EC008C" d="M8.502,23.692c0,0,0.32,0.216,0.357,0.715
						c0,0,0.209-1.677-0.063-2.749c-0.163-0.644-0.528-0.9-0.739-0.913c0,0,0.222,0.44,0.354,1.163
						c0.132,0.724,0.172,1.061-0.008,1.208L8.502,23.692z"/>
					<path fill-rule="evenodd" clip-rule="evenodd" fill="#EC008C" d="M7.326,19.519c0,0,0.378,0.394,0.682,1.083
						c0,0,0.148-0.016,0.314,0.115c0.163,0.132,0-1.102-0.872-2.136C7.45,18.581,7.193,18.706,7.326,19.519z"/>
					<path fill-rule="evenodd" clip-rule="evenodd" fill="#EC008C" d="M7.549,18.49c0,0,0.575,0.666,0.781,1.389
						c0.205,0.723,0.18,0.831,0.131,0.938c0,0,0.485,0.378,0.566,1.364c0.084,0.985-0.017,1.824-0.017,1.824
						s0.264-0.706,0.706-1.019c0,0,0.019-1.955-0.542-3.287C8.618,18.367,8.008,18.087,7.549,18.49z"/>
					<path fill="#EC008C" d="M6.874,28.87c0,0-0.148-0.154-0.246-0.431c-0.083-0.235-0.758-1.312-1.245-0.881
						C4.923,27.965,5.754,28.728,6.874,28.87z"/>
					<path fill="#EC008C" d="M6.566,28.075c0,0-0.253-0.857-0.431-1.221c-0.18-0.363-0.364-0.684-0.784-0.833
						c-0.419-0.147-0.486,0.908,0.34,1.276C6.215,27.533,6.411,27.852,6.566,28.075z"/>
					<path fill-rule="evenodd" clip-rule="evenodd" fill="#EC008C" d="M5.556,27.329c0,0-0.26-0.104-0.418-0.351
						c-0.16-0.246-0.198-0.592-0.198-0.739c0-0.149-0.007-0.265-0.222-0.265c-0.216,0-0.71,0.153-0.795,0.487
						c-0.087,0.333,0.744,0.931,1.316,1.028C5.239,27.489,5.32,27.348,5.556,27.329z"/>
					<path fill-rule="evenodd" clip-rule="evenodd" fill="#EC008C" d="M5.199,27.55c0,0-0.076,0.079-0.08,0.198
						c0,0-1.13-0.102-1.306-0.443c-0.178-0.341-0.106-0.53-0.058-0.617c0.049-0.085,0.126,0.012,0.222,0.144
						C4.072,26.964,4.406,27.366,5.199,27.55z"/>
					<path fill="#EC008C" d="M5.107,27.819c0,0-0.875-0.071-1.156-0.248c-0.277-0.177-0.33-0.16-0.404,0.086
						c-0.075,0.246-0.01,0.378,0.035,0.448c0.046,0.07,0.501,0.12,1.008,0.017c0.505-0.103,0.533-0.161,0.533-0.161
						S5.095,27.888,5.107,27.819z"/>
					<path fill="#EC008C" d="M3.693,28.271c0,0,0.218,0.262,0.559,0.26c0.342-0.005,0.754-0.148,0.971-0.342
						c0,0-0.07-0.099-0.078-0.157C5.145,28.032,4.459,28.311,3.693,28.271z"/>
					<path fill="#EC008C" d="M4.421,29.031c-0.166-0.1-0.126-0.416-0.126-0.416c0.652-0.074,0.969-0.366,0.969-0.366
						s0.103,0.14,0.227,0.202C5.49,28.451,4.881,29.306,4.421,29.031z"/>
					<path fill="#EC008C" d="M4.992,29.027c0,0,0.366-0.181,0.563-0.539c0,0,0.316,0.225,0.743,0.333
						C6.299,28.821,5.702,28.713,4.992,29.027z"/>
				</g>
			</g>
			<g>
				<path fill="#010101" d="M8.666,28.511c0,0-0.076,0.146-0.41,0.206c-0.335,0.059-1.183,0.476-1.561,1.168
					c-0.379,0.693-0.276,0.122-0.058-0.252c0.219-0.372,0.655-0.879,1.188-1.09c0.528-0.211,0.845-0.424,0.845-0.424
					s0.201-0.205,0.468-0.039C9.402,28.246,9.063,28.699,8.666,28.511z"/>
				<g>
					<g>
						<path fill="#010101" d="M9.768,28.413c-0.438,0-0.794-0.157-0.797-0.159l0.016-0.036c0.007,0.002,0.599,0.266,1.192,0.103
							c0.593-0.161,0.743-0.619,0.743-0.625l0.068,0.017c-0.002,0.005-0.189,0.479-0.799,0.645
							C10.045,28.399,9.903,28.413,9.768,28.413z"/>
					</g>
					<path fill="none" stroke="#010101" stroke-width="0.8302" d="M8.984,28.158c0,0,0.534,0.122,1.35-0.362
						c0.815-0.484,0.818-1.021,0.818-1.021"/>
					<path fill="#010101" d="M11.102,27.033c0,0,0.084-0.191,0.083-0.319c-0.001-0.127-0.107-0.124-0.13-0.049
						c-0.021,0.076,0.027,0.185,0.001,0.309c-0.024,0.124-0.075,0.208-0.075,0.208L11.102,27.033z"/>
					<path fill="#010101" d="M10.879,27.899c0,0,0.129-0.163,0.159-0.287c0.031-0.124-0.07-0.145-0.11-0.079
						c-0.041,0.065-0.021,0.185-0.077,0.298c-0.057,0.114-0.126,0.182-0.126,0.182L10.879,27.899z"/>
				</g>
			</g>
		</g>
		<g>
			<path fill="#EC008C" d="M77.813,20.837c-0.12,0.076-0.231,0.164-0.322,0.264c-0.089,0.1-0.165,0.213-0.188,0.33
				c-0.044,0.237,0.131,0.434,0.333,0.586c0.023,0.019,0.051,0.042,0.073,0.056l0.088,0.057c0.06,0.039,0.121,0.078,0.177,0.11
				l0.357,0.207c0.12,0.07,0.247,0.144,0.376,0.228c0.126,0.091,0.263,0.203,0.369,0.363c0.107,0.166,0.146,0.358,0.16,0.535
				c-0.002,0.083,0.001,0.171-0.009,0.251c-0.011,0.079-0.018,0.161-0.031,0.236l-0.049,0.225l-0.061,0.216
				c-0.03,0.118-0.074,0.273-0.1,0.395c-0.052,0.227-0.066,0.48-0.032,0.693c0.033,0.213,0.122,0.395,0.268,0.547
				c0.142,0.154,0.341,0.279,0.566,0.379c0.225,0.1,0.469,0.183,0.725,0.244l0.049,0.012l0.025,0.006l0.012,0.003l0.006,0.001
				l0.004,0.001c-0.051-0.009-0.013-0.002-0.021-0.005l0.104,0.017c0.067,0.01,0.141,0.024,0.205,0.033
				c0.112,0,0.211,0.019,0.344,0.006l0.188-0.009l0.191-0.024c0.129-0.01,0.26-0.041,0.39-0.06c0.524-0.105,1.056-0.265,1.613-0.403
				c0.283-0.062,0.565-0.133,0.871-0.16c0.304-0.027,0.626-0.036,0.956,0.061l-0.024-0.007c0.159,0.034,0.312,0.062,0.472,0.102
				l0.241,0.059c0.081,0.019,0.161,0.047,0.241,0.07c0.082,0.025,0.164,0.044,0.24,0.08l0.237,0.094
				c0.08,0.028,0.152,0.07,0.228,0.11l0.221,0.121c0.075,0.038,0.139,0.093,0.208,0.138l0.204,0.142
				c0.139,0.092,0.253,0.21,0.377,0.314l0.184,0.163l0.17,0.174c0.11,0.119,0.222,0.236,0.332,0.355l-0.4-0.271l-0.197-0.137
				l-0.205-0.123l-0.205-0.121c-0.067-0.04-0.135-0.083-0.207-0.116l-0.209-0.103c-0.07-0.033-0.139-0.074-0.211-0.099l-0.219-0.079
				c-0.07-0.026-0.139-0.059-0.216-0.072l-0.221-0.061c-0.071-0.021-0.148-0.031-0.224-0.045c-0.077-0.012-0.151-0.026-0.227-0.037
				l-0.233-0.028l-0.479-0.056L85.303,26.8c-0.218-0.042-0.467-0.02-0.72,0.026c-0.25,0.046-0.513,0.121-0.771,0.199l-0.805,0.251
				c-0.27,0.085-0.552,0.159-0.837,0.227c-0.291,0.059-0.586,0.117-0.901,0.124c-0.148,0.015-0.333-0.004-0.498-0.012
				c-0.076-0.01-0.142-0.022-0.212-0.033l-0.104-0.017l-0.032-0.007l-0.007-0.002l-0.014-0.004l-0.025-0.006l-0.056-0.015
				c-0.287-0.071-0.579-0.168-0.864-0.302c-0.284-0.137-0.57-0.316-0.804-0.582c-0.235-0.264-0.385-0.618-0.421-0.961
				c-0.009-0.085-0.019-0.171-0.013-0.253c0.004-0.083,0.002-0.169,0.017-0.247c0.013-0.081,0.021-0.16,0.037-0.239l0.061-0.236
				c0.045-0.151,0.088-0.263,0.141-0.413l0.07-0.186l0.057-0.184c0.016-0.06,0.025-0.12,0.039-0.178
				c0.013-0.06,0.014-0.113,0.021-0.169c0-0.104-0.012-0.193-0.047-0.273c-0.04-0.081-0.112-0.166-0.204-0.248
				c-0.097-0.083-0.205-0.165-0.317-0.249c-0.113-0.084-0.23-0.166-0.344-0.264c-0.06-0.046-0.113-0.093-0.165-0.14l-0.079-0.071
				c-0.03-0.029-0.053-0.056-0.081-0.083c-0.055-0.055-0.106-0.108-0.151-0.176l-0.069-0.097l-0.055-0.111
				c-0.063-0.15-0.079-0.337-0.015-0.491c0.063-0.153,0.174-0.264,0.295-0.347C77.549,20.947,77.679,20.882,77.813,20.837z"/>
			<path fill="#EC008C" d="M80.437,11.333c0,0-0.319,0.158-0.834,0.306c-0.258,0.076-0.561,0.151-0.893,0.208
				c-0.165,0.026-0.335,0.055-0.512,0.072c-0.177,0.018-0.356,0.03-0.536,0.039c-0.179,0.002-0.359,0.002-0.538-0.009
				c-0.178-0.007-0.35-0.032-0.519-0.058c-0.335-0.053-0.645-0.145-0.894-0.258c-0.126-0.056-0.234-0.114-0.329-0.176
				c-0.094-0.056-0.168-0.12-0.229-0.167c-0.063-0.048-0.104-0.097-0.136-0.124c-0.028-0.029-0.044-0.046-0.044-0.046
				s0.02,0.012,0.056,0.032c0.037,0.019,0.089,0.051,0.159,0.085c0.069,0.031,0.151,0.074,0.249,0.111
				c0.099,0.042,0.212,0.076,0.336,0.112c0.248,0.069,0.545,0.124,0.867,0.153c0.16,0.017,0.327,0.021,0.496,0.027
				s0.344,0.003,0.516-0.002c0.173-0.004,0.347-0.013,0.517-0.027c0.172-0.015,0.34-0.023,0.503-0.043
				c0.324-0.033,0.63-0.072,0.891-0.107C80.088,11.384,80.437,11.333,80.437,11.333z"/>
			<path fill="#EC008C" d="M74.814,10.276c0,0,0.072,0.061,0.203,0.155c0.071,0.044,0.149,0.1,0.248,0.156
				c0.092,0.063,0.209,0.117,0.327,0.183c0.126,0.056,0.259,0.126,0.404,0.18c0.072,0.028,0.146,0.061,0.223,0.086
				c0.08,0.024,0.159,0.052,0.24,0.079c0.161,0.056,0.334,0.087,0.507,0.136c0.174,0.03,0.352,0.075,0.532,0.093
				c0.181,0.018,0.36,0.058,0.54,0.059c0.179,0.001,0.354,0.033,0.527,0.023c0.172-0.002,0.338,0.001,0.496,0.001
				c0.157-0.013,0.307-0.02,0.445-0.025c0.07-0.003,0.137-0.005,0.199-0.008c0.064-0.007,0.123-0.014,0.179-0.02
				C80,11.366,80.1,11.358,80.18,11.35c0.164-0.013,0.257-0.017,0.257-0.017s-0.087,0.031-0.243,0.081
				c-0.079,0.023-0.176,0.052-0.285,0.084c-0.058,0.015-0.115,0.032-0.178,0.049c-0.063,0.013-0.128,0.025-0.199,0.039
				c-0.138,0.025-0.29,0.055-0.449,0.08c-0.162,0.017-0.332,0.032-0.511,0.042c-0.089,0.009-0.18,0.011-0.272,0.009
				c-0.092,0-0.185-0.002-0.277-0.005c-0.095-0.001-0.19-0.006-0.283-0.02l-0.284-0.031c-0.189-0.023-0.375-0.074-0.561-0.11
				c-0.092-0.023-0.181-0.053-0.27-0.081c-0.087-0.028-0.175-0.054-0.257-0.089c-0.082-0.034-0.166-0.066-0.245-0.101
				c-0.078-0.037-0.151-0.078-0.227-0.115c-0.146-0.07-0.275-0.163-0.396-0.237c-0.116-0.085-0.221-0.162-0.307-0.242
				c-0.088-0.072-0.156-0.149-0.215-0.207C74.866,10.355,74.814,10.276,74.814,10.276z"/>
			<path fill="#EC008C" d="M75.806,10.143"/>
			<path fill="#EC008C" d="M75.806,10.104c0,0,0.06,0.051,0.17,0.132c0.058,0.04,0.122,0.089,0.201,0.14
				c0.077,0.052,0.17,0.105,0.268,0.165c0.1,0.057,0.21,0.114,0.327,0.173c0.118,0.055,0.241,0.114,0.374,0.167
				c0.13,0.058,0.272,0.096,0.412,0.147c0.143,0.049,0.289,0.08,0.434,0.121c0.149,0.029,0.296,0.064,0.445,0.088
				c0.148,0.015,0.292,0.045,0.435,0.058c0.142,0.008,0.28,0.02,0.413,0.032c0.132,0.006,0.258,0.004,0.372,0.008
				c0.116,0.003,0.224,0.009,0.318,0.002c0.094-0.004,0.177-0.004,0.246-0.004c0.138-0.002,0.216,0,0.216,0
				s-0.073,0.024-0.206,0.061c-0.066,0.02-0.148,0.043-0.243,0.064c-0.093,0.028-0.2,0.044-0.317,0.061
				c-0.118,0.015-0.247,0.037-0.383,0.046c-0.138,0.004-0.282,0.011-0.433,0.011c-0.148-0.007-0.306-0.017-0.462-0.033
				c-0.158-0.021-0.314-0.055-0.474-0.083c-0.154-0.047-0.311-0.085-0.46-0.14c-0.15-0.056-0.295-0.114-0.427-0.184
				c-0.139-0.062-0.261-0.142-0.379-0.216c-0.115-0.073-0.221-0.153-0.313-0.229c-0.092-0.077-0.174-0.15-0.24-0.222
				c-0.07-0.066-0.123-0.135-0.168-0.186C75.845,10.172,75.806,10.104,75.806,10.104z"/>
			<path fill="#EC008C" d="M80.969,0.739c0,0-0.126,0.334-0.305,0.931c-0.094,0.296-0.188,0.662-0.298,1.079
				c-0.054,0.209-0.1,0.435-0.154,0.669c-0.044,0.237-0.103,0.485-0.145,0.745c-0.042,0.261-0.095,0.53-0.122,0.813
				c-0.018,0.141-0.037,0.283-0.056,0.428c-0.012,0.146-0.025,0.293-0.039,0.444c-0.032,0.299-0.03,0.607-0.044,0.92
				c-0.008,0.156,0.005,0.314,0.004,0.476c0.007,0.159-0.003,0.322,0.015,0.482c0.029,0.321,0.037,0.652,0.097,0.979
				c0.026,0.165,0.048,0.328,0.074,0.496c0.033,0.196,0.052,0.38,0.061,0.571c0.015,0.38-0.006,0.773-0.12,1.173
				c-0.062,0.2-0.14,0.402-0.265,0.59c-0.058,0.097-0.133,0.184-0.211,0.269c-0.052,0.061-0.118,0.13-0.178,0.194
				c-0.254,0.263-0.453,0.515-0.674,0.783c-0.108,0.137-0.214,0.275-0.322,0.41c-0.104,0.14-0.208,0.28-0.313,0.418
				c-0.413,0.559-0.811,1.116-1.199,1.662c-0.05,0.068-0.098,0.136-0.147,0.204l-0.063,0.091c-0.021,0.033-0.052,0.073-0.064,0.099
				c-0.063,0.099-0.121,0.229-0.15,0.339c-0.06,0.23-0.02,0.438,0.123,0.623c0.071,0.09,0.161,0.177,0.268,0.248
				c0.061,0.043,0.122,0.086,0.183,0.13c0.066,0.047,0.128,0.094,0.187,0.144c0.234,0.195,0.447,0.403,0.621,0.64
				c0.17,0.237,0.326,0.509,0.319,0.832c0.004,0.078-0.024,0.157-0.043,0.23c-0.031,0.068-0.054,0.145-0.103,0.199
				c-0.089,0.126-0.164,0.186-0.243,0.269c-0.153,0.155-0.289,0.296-0.391,0.436c-0.104,0.139-0.144,0.282-0.116,0.409
				c0.028,0.13,0.11,0.241,0.191,0.324c0.077,0.089,0.162,0.147,0.224,0.203c0.138,0.095,0.209,0.147,0.209,0.147
				s-0.081-0.039-0.232-0.11c-0.072-0.044-0.169-0.09-0.267-0.17c-0.097-0.074-0.214-0.179-0.276-0.35
				c-0.069-0.17-0.029-0.396,0.069-0.573c0.094-0.182,0.227-0.346,0.36-0.518c0.146-0.186,0.26-0.318,0.229-0.494
				c-0.012-0.172-0.127-0.37-0.287-0.547c-0.16-0.182-0.364-0.347-0.589-0.501c-0.056-0.039-0.111-0.074-0.166-0.111
				c-0.063-0.037-0.125-0.074-0.188-0.114c-0.146-0.085-0.289-0.199-0.417-0.339c-0.126-0.143-0.233-0.322-0.287-0.524
				c-0.056-0.203-0.061-0.419-0.021-0.619c0.041-0.202,0.105-0.377,0.21-0.561c0.025-0.048,0.045-0.074,0.066-0.112l0.071-0.114
				c0.047-0.068,0.091-0.137,0.136-0.208c0.363-0.559,0.747-1.14,1.159-1.717c0.204-0.289,0.417-0.578,0.64-0.864
				c0.229-0.282,0.473-0.59,0.714-0.838l0.185-0.199c0.041-0.047,0.086-0.092,0.117-0.15c0.077-0.107,0.128-0.241,0.174-0.379
				c0.082-0.284,0.114-0.604,0.105-0.925c-0.005-0.157-0.019-0.324-0.037-0.471c-0.024-0.175-0.042-0.356-0.063-0.533
				c-0.051-0.353-0.051-0.705-0.064-1.047c-0.008-0.171,0.006-0.342,0.01-0.511c0.007-0.167,0.004-0.335,0.022-0.5
				c0.036-0.327,0.056-0.649,0.111-0.957c0.022-0.154,0.046-0.306,0.07-0.456c0.029-0.147,0.061-0.295,0.089-0.439
				c0.056-0.287,0.134-0.559,0.199-0.821c0.07-0.262,0.147-0.511,0.22-0.746c0.086-0.232,0.155-0.455,0.235-0.659
				c0.154-0.412,0.307-0.762,0.438-1.046c0.132-0.287,0.25-0.503,0.328-0.651C80.922,0.815,80.969,0.739,80.969,0.739z"/>
		</g>
		<path fill="#EC008C" d="M88.682,28.063c0,0,0.181,0.164,0.429,0.508c0.126,0.173,0.262,0.392,0.412,0.649
			c0.138,0.263,0.307,0.556,0.433,0.899c0.146,0.337,0.267,0.715,0.391,1.116c0.113,0.403,0.229,0.833,0.302,1.285
			c0.066,0.453,0.151,0.92,0.176,1.398c0.02,0.241,0.039,0.481,0.058,0.722l0.011,0.731c0.01,0.487-0.02,0.972-0.062,1.45
			c-0.018,0.239-0.032,0.477-0.051,0.709c-0.03,0.234-0.061,0.461-0.091,0.687c-0.063,0.452-0.11,0.891-0.208,1.296
			c-0.089,0.407-0.171,0.791-0.249,1.145c-0.148,0.711-0.364,1.282-0.472,1.69c-0.127,0.403-0.2,0.633-0.2,0.633
			s0.043-0.239,0.112-0.656c0.072-0.416,0.2-1.005,0.309-1.716c0.054-0.356,0.111-0.741,0.172-1.149
			c0.071-0.407,0.085-0.844,0.145-1.289c0.025-0.222,0.05-0.447,0.075-0.677c0.012-0.23,0.023-0.464,0.034-0.698
			c0.032-0.471,0.049-0.949,0.032-1.424l0.004-0.716c-0.015-0.236-0.027-0.472-0.041-0.706c-0.014-0.47-0.088-0.925-0.143-1.369
			c-0.07-0.44-0.146-0.864-0.231-1.265c-0.096-0.397-0.191-0.774-0.312-1.109c-0.105-0.342-0.237-0.643-0.344-0.914
			c-0.119-0.265-0.229-0.495-0.335-0.676C88.833,28.254,88.682,28.063,88.682,28.063z"/>
	</g>
	<g>
		<polygon fill="#656668" points="91.797,48.372 112.503,48.372 106.684,26.816 97.461,26.936 		"/>
	</g>
	<g>
		<polygon fill="#8A8C8E" points="91.49,47.633 111.162,47.633 105.629,26.936 95.975,26.936 		"/>
	</g>
	<g>
		<polygon fill="#8A8C8E" points="91.49,47.633 111.162,47.633 105.629,26.936 95.975,26.936 		"/>
	</g>
	<g>
		<path fill="#8A8C8E" d="M98.136,28.317H97.4c0-0.172,0.032-4.188,2.884-5.039l0.087-0.016c0.553-0.022,1.002,0.168,1.365,0.553
			c1.133,1.204,0.866,4.053,0.854,4.17l-0.734-0.074c0.075-0.725,0.095-2.797-0.655-3.596c-0.199-0.21-0.45-0.319-0.752-0.319l0,0
			C98.161,24.726,98.136,28.283,98.136,28.317z"/>
	</g>
	<g>
		<path fill="#8A8C8E" d="M99.841,28.317h-0.731c0-0.172,0.03-4.188,2.881-5.039l0.091-0.016c0.553-0.022,1,0.168,1.362,0.553
			c1.137,1.204,0.869,4.053,0.855,4.17l-0.733-0.074c0.072-0.725,0.095-2.797-0.655-3.596c-0.203-0.21-0.449-0.319-0.755-0.319l0,0
			C99.87,24.726,99.841,28.283,99.841,28.317z"/>
	</g>
	<g>
		<path fill="#FFFFFF" d="M93.871,41.196v-0.895h0.89v0.895H93.871z"/>
		<path fill="#FFFFFF" d="M98.626,38.815l-0.878,0.16c-0.031-0.175-0.101-0.308-0.204-0.399c-0.104-0.087-0.243-0.127-0.411-0.127
			c-0.223,0-0.4,0.072-0.536,0.229c-0.127,0.15-0.195,0.41-0.195,0.77c0,0.398,0.068,0.686,0.205,0.85
			c0.136,0.165,0.311,0.248,0.543,0.248c0.167,0,0.312-0.048,0.416-0.147c0.11-0.096,0.183-0.256,0.229-0.496l0.874,0.147
			c-0.087,0.404-0.263,0.709-0.522,0.915c-0.259,0.208-0.606,0.311-1.043,0.311c-0.494,0-0.89-0.158-1.181-0.47
			c-0.29-0.311-0.44-0.743-0.44-1.294c0-0.56,0.15-0.994,0.445-1.302c0.294-0.311,0.69-0.47,1.198-0.47
			c0.41,0,0.738,0.087,0.977,0.267C98.348,38.185,98.522,38.453,98.626,38.815z"/>
		<path fill="#FFFFFF" d="M99.103,39.462c0-0.3,0.074-0.586,0.219-0.865c0.146-0.276,0.354-0.491,0.621-0.636
			c0.269-0.151,0.567-0.223,0.896-0.223c0.512,0,0.935,0.167,1.261,0.503c0.324,0.326,0.488,0.751,0.488,1.256
			c0,0.509-0.167,0.936-0.495,1.271c-0.327,0.339-0.742,0.505-1.245,0.505c-0.312,0-0.608-0.07-0.888-0.21
			c-0.279-0.141-0.492-0.343-0.638-0.62C99.177,40.177,99.103,39.845,99.103,39.462z M100.015,39.506c0,0.339,0.08,0.59,0.24,0.771
			c0.16,0.176,0.351,0.268,0.592,0.268c0.229,0,0.426-0.092,0.586-0.268c0.156-0.181,0.236-0.44,0.236-0.779
			c0-0.331-0.08-0.581-0.236-0.762c-0.16-0.174-0.356-0.271-0.586-0.271c-0.241,0-0.432,0.096-0.592,0.271
			C100.095,38.917,100.015,39.175,100.015,39.506z"/>
		<path fill="#FFFFFF" d="M103.221,37.816h0.827v0.459c0.295-0.358,0.647-0.538,1.054-0.538c0.215,0,0.403,0.047,0.563,0.135
			c0.156,0.088,0.288,0.224,0.389,0.403c0.15-0.179,0.311-0.315,0.482-0.403c0.17-0.087,0.355-0.135,0.546-0.135
			c0.248,0,0.464,0.047,0.632,0.151c0.176,0.1,0.304,0.248,0.392,0.447c0.06,0.145,0.088,0.376,0.088,0.704v2.156h-0.896v-1.934
			c0-0.333-0.03-0.55-0.088-0.646c-0.087-0.127-0.215-0.191-0.382-0.191c-0.129,0-0.247,0.04-0.356,0.112
			c-0.111,0.079-0.187,0.191-0.239,0.339c-0.047,0.147-0.072,0.38-0.072,0.699v1.622h-0.895v-1.854c0-0.328-0.015-0.542-0.047-0.635
			c-0.036-0.091-0.083-0.164-0.147-0.211c-0.068-0.048-0.16-0.072-0.272-0.072c-0.14,0-0.263,0.034-0.372,0.112
			c-0.111,0.072-0.186,0.179-0.237,0.319c-0.049,0.144-0.075,0.375-0.075,0.702v1.638h-0.893V37.816z"/>
	</g>
	
		<text transform="matrix(1.227 0 0 1 6.876 48.2305)" fill="#8A8C8E" font-family="'DeusenburgSSK'" font-size="5.608" letter-spacing="2.445">FASHION BUZZ</text>
</g>
</svg>
